<?xml version="1.0" encoding="UTF-8" standalone="no"?>
<!-- Created with Inkscape (http://www.inkscape.org/) -->

<svg
   version="1.1"
   id="svg383"
   width="1920"
   height="1080"
   viewBox="0 0 1920 1080"
   sodipodi:docname="heart.svg"
   inkscape:version="1.2.2 (b0a8486541, 2022-12-01)"
   xmlns:inkscape="http://www.inkscape.org/namespaces/inkscape"
   xmlns:sodipodi="http://sodipodi.sourceforge.net/DTD/sodipodi-0.dtd"
   xmlns="http://www.w3.org/2000/svg"
   xmlns:svg="http://www.w3.org/2000/svg">
  <defs
     id="defs387" />
  <sodipodi:namedview
     id="namedview385"
     pagecolor="#ffffff"
     bordercolor="#999999"
     borderopacity="1"
     inkscape:showpageshadow="0"
     inkscape:pageopacity="0"
     inkscape:pagecheckerboard="0"
     inkscape:deskcolor="#d1d1d1"
     showgrid="false"
     inkscape:zoom="1.906242"
     inkscape:cx="944.79084"
     inkscape:cy="508.59229"
     inkscape:window-width="1920"
     inkscape:window-height="1001"
     inkscape:window-x="0"
     inkscape:window-y="0"
     inkscape:window-maximized="1"
     inkscape:current-layer="g389" />
  <g
     inkscape:groupmode="layer"
     inkscape:label="Image"
     id="g389">
    <path
       id="rect3318-7-5-6"
       style="fill:#810ba4;fill-opacity:1;stroke:#b2034f;stroke-width:5.03913;stroke-linecap:square;stroke-opacity:0;paint-order:fill markers stroke"
       inkscape:transform-center-x="4.2473359"
       inkscape:transform-center-y="-8.3981312"
       d="M 1112.4492 414.91211 C 1112.4492 414.91211 1106.3881 417.99975 1103.8555 419.75391 C 1102.3132 420.82239 1099.7968 422.13435 1097.8184 423.11914 C 1090.601 418.66104 1082.3613 416.32227 1076.6953 416.32227 C 1064.6073 416.32225 1061.9434 433.30311 1061.9434 448.05273 C 1061.9434 462.80236 1084.324 470.31447 1096.4121 470.31445 C 1104.6522 470.31444 1118.7733 474.33931 1121.3301 466.51953 C 1122.2259 463.77981 1120.1069 456.0183 1117.9277 449.85156 C 1118.0297 449.80921 1118.1316 449.77084 1118.2344 449.73633 C 1120.6491 448.92511 1126.0817 446.06421 1128.3633 443.60156 C 1129.9144 441.92737 1130.5449 440.50391 1130.5449 440.50391 C 1130.5449 440.50391 1129.1454 436.82063 1127.9805 434.83203 C 1126.8907 432.97171 1122.8418 432.16992 1122.8418 432.16992 C 1122.8418 432.16992 1116.7806 435.25756 1114.248 437.01172 C 1113.7503 437.35654 1113.1244 437.73409 1112.4629 438.11719 C 1111.2388 436.15744 1109.8243 434.18801 1108.2852 432.31641 C 1110.8677 431.33878 1115.8191 428.66609 1117.9707 426.34375 C 1119.5218 424.66956 1120.1523 423.24414 1120.1523 423.24414 C 1120.1523 423.24414 1118.7528 419.56282 1117.5879 417.57422 C 1116.4981 415.7139 1112.4492 414.91211 1112.4492 414.91211 z "
       inkscape:export-filename="heart.png"
       inkscape:export-xdpi="96"
       inkscape:export-ydpi="96" />
    <path
       id="rect3318-7"
       style="fill:#4b0ba4;fill-opacity:1;stroke:#b2034f;stroke-width:6.6;stroke-linecap:square;stroke-opacity:0;paint-order:fill markers stroke"
       d="M 1033.9375 323.95898 C 1033.0325 323.96843 1032.1474 324.00151 1031.3965 324.07617 C 1028.5865 324.3556 1023.0215 330.00977 1023.0215 330.00977 C 1023.0215 330.00977 1025.7761 337.63597 1026.4785 341.60938 C 1027.0458 344.81625 1027.2051 350.50633 1027.25 353.19531 C 1023.3354 355.31564 1019.5506 358.01974 1016.3184 361.4082 C 1005.5585 372.68802 1000.3828 390.82102 1000.3828 399.77539 C 1000.3828 411.28337 1009.5739 439.20345 1023.3945 442.69922 C 1030.3586 444.46069 1041.5685 424.51953 1047.1562 424.51953 C 1063.8337 424.51953 1077.3535 410.4903 1077.3535 393.18359 C 1077.3535 388.45036 1087.657 388.03223 1089.3223 380.07227 C 1090.2977 375.41006 1083.8436 362.69573 1082.4824 359.52539 C 1080.9715 356.00612 1078.1141 353.45163 1074.6133 351.60156 C 1074.3647 349.02371 1074.152 346.10459 1074.2266 344.0918 C 1074.3755 340.05951 1076.0547 332.125 1076.0547 332.125 C 1076.0547 332.125 1069.7651 327.29246 1066.9434 327.40234 C 1066.8079 327.40762 1066.6313 327.43449 1066.4883 327.44336 C 1065.1082 326.49175 1063.3822 325.35915 1062.0195 324.66016 C 1059.5069 323.37133 1051.7656 325.10352 1051.7656 325.10352 C 1051.7656 325.10352 1049.9452 333.0071 1048.3809 336.72656 C 1047.3647 339.1436 1045.3309 342.62571 1043.8047 345.14062 C 1043.7672 344.69118 1043.7555 344.24896 1043.8008 343.82617 C 1044.1561 340.5089 1043.7258 332.47822 1042.043 328.41602 C 1040.899 325.65432 1039.5488 324.125 1039.5488 324.125 C 1039.5488 324.125 1036.6526 323.93066 1033.9375 323.95898 z " />
    <path
       id="rect3211"
       style="fill:#510980;fill-opacity:1;stroke:#b2034f;stroke-width:6.6;stroke-linecap:square;stroke-opacity:0;paint-order:fill markers stroke"
       d="M 996.10352 353.63086 C 993.42381 353.60254 989.7624 353.83029 984.92773 354.05469 C 973.56428 354.58212 967.28548 354.99531 967.74609 361.06641 C 968.28857 368.21656 969.24769 373.38404 969.95312 378.66992 C 966.85628 379.60734 961.35827 381.32709 958.16602 382.6875 C 953.0102 384.88471 943.27734 390.5 943.27734 390.5 C 943.27734 390.5 942.39596 400.70171 943.07617 403.64258 C 943.71254 406.39388 947.22656 407.57617 947.22656 407.57617 L 970.24414 400.93164 C 969.66624 406.64131 968.60606 413.49652 966.81836 422.23047 C 966.03149 426.07478 964.27478 431.04564 963.00977 435.6875 C 959.91781 435.51074 956.21533 435.15991 953.82227 434.45703 C 948.44494 432.87762 937.49219 429.54492 937.49219 429.54492 C 937.49219 429.54492 932.58169 434.88286 931.23828 437.58594 C 929.98148 440.11478 935.06055 445.31445 935.06055 445.31445 L 946.50391 449.98242 C 945.33198 450.50878 944.20263 451.00863 943.25586 451.41211 C 938.10004 453.60932 927.23438 463.06445 927.23438 463.06445 C 927.23437 463.06445 928.11276 467.04155 928.79297 469.98242 C 929.42934 472.73372 934.16016 474.18555 934.16016 474.18555 C 934.16016 474.18555 940.96365 469.54184 944.85352 468.41211 C 948.86194 467.24794 957.3457 467.5332 957.3457 467.5332 L 956.58984 451.89062 L 961.33594 445.51953 C 957.82627 481.14708 963.7375 518.42076 967.08008 552.13086 C 968.69434 568.41067 963.58225 578.52336 963.31445 595.15234 C 963.13525 606.27911 994.87011 607.54285 997.0918 596.63867 C 1006.3973 550.96683 1011.3049 484.39637 1009.6133 427.61914 C 1008.8163 400.86768 1001.5511 376.50974 1002.2188 357.11719 C 1002.311 354.43765 1000.5697 353.67805 996.10352 353.63086 z " />
    <path
       id="path1227"
       style="fill:#3d1967;fill-opacity:1;stroke:#b2034f;stroke-width:6.6;stroke-linecap:square;stroke-opacity:0;paint-order:fill markers stroke"
       d="m 1039.4769,458.22284 c 0,14.95846 -13.7644,27.08469 -30.7437,27.08468 -10.88461,-1e-5 -46.3821,50.03582 -51.84525,42.51771 -1.78507,-2.45652 -10.86505,-19.4521 -11.4084,-38.73394 -0.38777,-13.76059 2.74434,-27.95366 11.61134,-39.99525 6.60955,-8.9759 15.9394,-16.74917 27.81522,-19.69348 10.91658,-2.70649 11.43541,-3.3149 23.87989,0.48185 8.9325,2.72526 15.3893,7.4136 21.1323,12.74825 4.6983,4.36431 9.5586,8.8592 9.5586,15.59018 z"
       sodipodi:nodetypes="sssssssss" />
    <path
       id="rect1597"
       style="fill:#4d087e;fill-opacity:1;stroke:#b2034f;stroke-width:6.6;stroke-linecap:square;stroke-opacity:0;paint-order:fill markers stroke"
       d="m 1082.0263,381.70786 c 6.1809,-1.66975 15.4428,-4.03949 23.6026,-4.2593 8.8685,-0.23889 16.7095,0.46809 16.7095,0.46809 0,0 2.0146,0.13655 3.1412,1.92704 1.3418,2.13237 1.8252,6.10495 1.7038,7.97991 -0.1034,1.5966 -0.5683,5.38714 -1.9341,7.33655 -1.6785,2.39572 -4.3082,2.81835 -4.3082,2.81835 0,0 -16.6805,0.43015 -24.2149,3.61022 -6.694,2.82533 -13.5732,6.91106 -17.2706,13.12481 -7.8697,13.22548 -7.0167,45.63299 -7.0167,45.63299 l -46.7897,7.64492 c 0,0 -1.3134,-30.80975 3.0249,-40.35102 4.8744,-10.72031 11.0684,-21.41813 19.9366,-29.16669 9.3843,-8.19958 21.3849,-13.51584 33.4156,-16.76587 z"
       sodipodi:nodetypes="sscssscssccsss" />
    <path
       id="path618"
       style="fill:#6c126e;fill-opacity:1;stroke:#b2034f;stroke-width:6.6;stroke-linecap:square;stroke-opacity:0;paint-order:fill markers stroke"
       d="m 1153.2558,542.4708 c 0,27.54238 -5.1665,66.02796 -23.6278,83.74245 -4.4423,4.26263 -22.9688,4.43274 -41.4256,1.26961 -18.2449,-3.1268 -36.401,-9.53665 -44.3778,-14.03428 -36.0993,-20.35406 -54.13023,-32.06307 -81.50701,-72.79049 -6.47952,-9.63933 -5.85479,-19.39673 -1.55252,-27.00142 6.73059,-11.89697 28.13726,-14.22335 45.47143,-31.22745 11.1315,-10.91955 19.6057,-21.63156 31.3431,-24.89544 17.6212,-4.90003 23.0918,-2.28383 28.5199,-0.14699 8.814,3.46971 18.6732,5.01878 28.1629,5.30178 10.2049,0.30433 19.9945,-0.61462 27.9543,4.96581 9.001,6.31045 15.2243,16.60771 20.3604,28.38174 6.459,14.80677 10.6787,31.94904 10.6787,46.43468 z"
       sodipodi:nodetypes="sssssssssssss" />
  </g>
</svg>
